Coordinates
version=1
nRows=14
nColumns=36
inDegrees=yes

Units are S.I. units (second, meters, Newtons, ...)
If the header above contains a line with 'inDegrees', this indicates whether rotational values are in degrees (yes) or radians (no).

endheader
time	pelvis_tilt	pelvis_list	pelvis_rotation	pelvis_tx	pelvis_ty	pelvis_tz	hip_flexion_r	hip_adduction_r	hip_rotation_r	knee_angle_r	knee_angle_r_beta	ankle_angle_r	subtalar_angle_r	mtp_angle_r	hip_flexion_l	hip_adduction_l	hip_rotation_l	knee_angle_l	knee_angle_l_beta	ankle_angle_l	subtalar_angle_l	mtp_angle_l	lumbar_extension	lumbar_bending	lumbar_rotation	arm_flex_r	arm_add_r	arm_rot_r	elbow_flex_r	pro_sup_r	arm_flex_l	arm_add_l	arm_rot_l	elbow_flex_l	pro_sup_l
      0.00000000	      1.75322673	      0.59719124	      0.25406179	     -0.19449989	      0.92024671	     -0.25219790	     25.35185340	     -0.18024063	     -2.49346995	      1.71979120	      0.03001602	      7.51683277	     -0.31055373	     -5.32483468	    -23.57244178	      3.90349767	     -0.14253265	      6.33471938	      0.11056171	     13.95365148	      0.17535871	     -5.32483468	     -9.75342841	     -0.34204575	     -5.59274599	     -5.72310753	     -3.89131585	    -10.11282032	     30.92678568	    110.47600035	      6.86278447	     -8.68495716	     11.60826273	     34.43319498	    106.79091822
      0.01000000	      1.85399658	      0.40689535	      0.35952784	     -0.17890183	      0.91858756	     -0.25231438	     25.06151663	      0.08637186	     -2.33838996	      2.53525334	      0.04424852	      7.26038604	     -0.74038344	     -5.33797081	    -24.09837475	      3.61675699	     -0.22456578	      7.37587490	      0.12873330	     13.33443851	      0.10432832	     -5.33797081	     -9.47589884	      0.51537303	     -5.63898055	     -5.93271897	     -3.99457202	    -10.28468752	     30.70486984	    110.41421551	      6.51480514	     -8.45012104	     11.54140058	     34.16521547	    106.77938323
      0.02000000	      1.72273147	      0.21026646	      0.39941957	     -0.16331507	      0.91666079	     -0.25213215	     24.99069986	      0.47297575	     -1.51924941	      3.24322004	      0.05660487	      5.54912405	     -3.52908011	     -5.44516603	    -24.15955817	      3.30000602	     -0.91874924	      8.76100949	      0.15290846	     12.58283451	     -0.02619799	     -5.44516603	     -8.87217691	      1.34276431	     -5.54683344	     -6.19431436	     -3.89450882	    -11.45184029	     30.40236021	    110.09186188	      6.23594951	     -8.01699738	     10.94955302	     33.42047338	    106.84186816
      0.03000000	      1.71174327	     -0.02872939	      0.49322877	     -0.14757263	      0.91510793	     -0.25205999	     24.88464496	      0.81187030	     -1.56460978	      4.21946305	      0.07364352	      4.61797374	     -4.13531435	     -5.46868180	    -24.32716514	      2.91642938	     -1.43233876	     10.15363977	      0.17721445	     11.53764712	     -0.25307290	     -5.46868180	     -8.45087761	      2.25216920	     -5.57310301	     -6.43274438	     -3.97638902	    -11.72876703	     30.13412423	    110.02193892	      5.84567280	     -7.77046261	     10.87085266	     33.04587409	    106.84819144
      0.04000000	      1.48214664	     -0.27503131	      0.47400854	     -0.13188506	      0.91350380	     -0.25156282	     24.89980967	      1.28901802	     -0.44196631	      4.98801000	      0.08705720	      2.06144955	     -6.73362805	     -5.56616794	    -24.13869043	      2.55308233	     -1.73612834	     11.72457289	      0.20463240	     10.47306661	     -0.61537775	     -5.56616794	     -7.73830852	      3.08836189	     -5.42551127	     -6.64287966	     -3.93558175	    -12.64656205	     29.76013927	    109.83445822	      5.56484092	     -7.41043449	     10.54671385	     32.27467192	    106.93724264
      0.05000000	      1.41826756	     -0.63147101	      0.47426886	     -0.11599899	      0.91246285	     -0.25109661	     24.86593282	      1.79289364	     -0.35941488	      6.11676154	      0.10675763	      0.57094498	     -7.04403288	     -5.58793516	    -23.94393125	      2.02517384	     -2.34319097	     13.56697588	      0.23678840	      8.96445198	     -0.91343489	     -5.58793516	     -7.26496448	      4.07685917	     -5.39787971	     -6.83558377	     -4.05142564	    -12.87930528	     29.43975018	    109.78363531	      5.14873216	     -7.16028727	     10.49335519	     31.86084875	    106.93417494
      0.06000000	      1.09288194	     -0.97524898	      0.39323349	     -0.10026378	      0.91143273	     -0.25031212	     25.04962069	      2.39507056	      0.78522528	      7.13195141	      0.12447603	     -2.42617062	     -9.64288651	     -5.67174376	    -23.28105590	      1.53552189	     -2.69621948	     15.64625095	      0.27307859	      7.25803607	     -1.74345554	     -5.67174376	     -6.45038432	      5.00794652	     -5.21001014	     -6.93217580	     -4.09348532	    -13.52998336	     28.84959705	    109.66710444	      4.83416968	     -6.81487115	     10.30704562	     30.90495047	    106.95495297
      0.07000000	      1.08798883	     -1.51357919	      0.29603770	     -0.08439879	      0.91121008	     -0.24945618	     24.98664211	      3.13027125	      1.02678174	      8.50296621	      0.14840476	     -3.76077146	     -9.94496469	     -5.69222262	    -22.73718806	      0.74536710	     -3.55130353	     18.06858313	      0.31535627	      5.17633239	     -2.08390352	     -5.69222262	     -6.10018274	      6.15555285	     -5.09037596	     -6.99766745	     -4.25568277	    -13.72700842	     28.52068078	    109.62742197	      4.39613180	     -6.55897946	     10.30054934	     30.47948133	    106.94201403
      0.08000000	      0.95520655	     -2.11363221	      0.11950271	     -0.06866569	      0.91114960	     -0.24839896	     25.12130843	      3.97966820	      1.54036572	     10.08030723	      0.17593455	     -5.06983515	    -10.82729656	     -5.71524689	    -21.82900476	     -0.12396827	     -4.33872223	     20.81782070	      0.36333951	      2.82406506	     -2.65046282	     -5.71524689	     -5.58873487	      7.33913763	     -4.90896397	     -6.98055992	     -4.43004544	    -14.01034800	     28.04299706	    109.57216352	      3.98207886	     -6.25615310	     10.25882016	     29.81670371	    106.90287191
      0.09000000	      0.70827067	     -2.66173320	     -0.15260952	     -0.05322531	      0.91127973	     -0.24710572	     25.34176688	      4.90074186	      2.75875453	     11.65700633	      0.20345314	     -7.20391217	    -13.56583677	     -5.78829962	    -20.58448468	     -0.88284111	     -4.76723757	     23.82164345	      0.41576611	     -0.05784495	     -4.08151652	     -5.78829962	     -5.00464602	      8.44021549	     -4.62248897	     -6.91093063	     -4.54008264	    -14.55506113	     27.47372482	    109.52167736	      3.70413029	     -5.94121182	     10.40207390	     28.83161109	    106.88624653
      0.10000000	      0.86359776	     -3.47096180	     -0.43957086	     -0.03779174	      0.91225691	     -0.24573294	     25.10365610	      6.03337996	      3.21608012	     13.35296398	      0.23305319	     -7.37346718	    -14.31612026	     -5.81049369	    -19.59020681	     -2.09590207	     -5.79677962	     27.10607607	      0.47309027	     -2.88368682	     -4.36048904	     -5.81049369	     -4.98882532	      9.81275429	     -4.35815918	     -6.77294826	     -4.76232083	    -14.76251546	     27.20135921	    109.50411661	      3.30493742	     -5.68605098	     10.48728864	     28.42313926	    106.87231875
      0.11000000	      1.16280800	     -4.15348478	     -0.73871762	     -0.02287100	      0.91369897	     -0.24423477	     24.64719328	      7.04874087	      3.75551092	     14.98186680	      0.26148290	     -7.24752716	    -15.04241882	     -5.82375774	    -18.53781244	     -3.18837739	     -6.49778029	     30.62890298	      0.53457520	     -5.61824039	     -4.63591669	     -5.82375774	     -5.25948951	     10.94292610	     -4.03886695	     -6.49907189	     -4.91565628	    -14.92855674	     26.97639950	    109.48999390	      3.02662427	     -5.49864284	     10.53600093	     28.03557270	    106.85367925
      0.12000000	      0.86401446	     -4.87929640	     -1.16229959	     -0.00806855	      0.91449789	     -0.24259244	     24.79623836	      8.18878248	      4.46521393	     16.56416597	      0.28909923	     -7.60320024	    -16.81453149	     -5.88154573	    -16.64063028	     -4.30955382	     -7.14955761	     34.34362806	      0.59940939	     -9.55412911	     -6.71765013	     -5.88154573	     -4.74212721	     12.15622419	     -3.66085236	     -6.34832062	     -5.07588670	    -15.50013199	     26.65551871	    109.51410310	      2.68919431	     -5.21847271	     10.89431104	     27.23934841	    106.87859757
      0.13000000	      1.12067948	     -5.65409667	     -1.54205154	      0.00629431	      0.91627298	     -0.24086287	     24.08201482	      9.33498467	      4.93619051	     17.69176862	      0.30877961	     -7.04407666	    -17.47497422	     -5.90549958	    -15.28963138	     -5.59079934	     -7.84496586	     38.02025916	      0.66357870	    -12.34253570	     -7.17727643	     -5.90549958	     -5.05983906	     13.32163289	     -3.23891308	     -6.05232952	     -5.21729021	    -15.69996552	     26.57553363	    109.53786814	      2.43026496	     -5.05250832	     11.05413397	     26.96835128	    106.89984435
